<?xml version="1.0" encoding="utf-8"?>
<!-- Generator: Adobe Illustrator 19.2.0, SVG Export Plug-In . SVG Version: 6.00 Build 0)  -->
<svg version="1.1" id="Layer_1" xmlns="http://www.w3.org/2000/svg" xmlns:xlink="http://www.w3.org/1999/xlink" x="0px" y="0px"
	 viewBox="0 0 32 32" style="enable-background:new 0 0 32 32;" xml:space="preserve">
<style type="text/css">
	.st0{fill:#E8DFE0;}
	.st1{fill-rule:evenodd;clip-rule:evenodd;fill:#E8DFE0;}
</style>
<path id="instagram_2_" class="st1" d="M28,32H4c-2.2,0-4-1.8-4-4V4c0-2.2,1.8-4,4-4h24c2.2,0,4,1.8,4,4v24C32,30.2,30.2,32,28,32z
	 M16,9.8c-2.5,0-4.6,1.5-5.6,3.6h0c0,0,0,0,0,0.1c-0.1,0.1-0.1,0.3-0.2,0.4c0,0.1,0,0.1-0.1,0.2c0,0.1-0.1,0.3-0.1,0.4
	c0,0.1,0,0.1-0.1,0.2c0,0.2-0.1,0.3-0.1,0.5c0,0.1,0,0.1,0,0.2c0,0.2,0,0.4,0,0.7c0,3.4,2.8,6.2,6.2,6.2c3.4,0,6.2-2.8,6.2-6.2
	c0-0.2,0-0.4,0-0.7c0-0.1,0-0.1,0-0.2c0-0.2,0-0.3-0.1-0.5c0-0.1,0-0.1-0.1-0.2c0-0.1-0.1-0.3-0.1-0.4c0-0.1,0-0.1-0.1-0.2
	c0-0.1-0.1-0.3-0.2-0.4c0,0,0,0,0-0.1h0C20.6,11.3,18.5,9.8,16,9.8z M28.4,5.2c0-0.9-0.7-1.6-1.6-1.6h-3.2c-0.9,0-1.6,0.7-1.6,1.6
	v3.2c0,0.9,0.7,1.6,1.6,1.6h3.2c0.9,0,1.6-0.7,1.6-1.6V5.2z M28.4,13.4h-2.9c0.2,0.8,0.3,1.7,0.3,2.6c0,5.4-4.4,9.8-9.8,9.8
	S6.2,21.4,6.2,16c0-0.9,0.1-1.8,0.3-2.6H3.6v13.4c0,0.9,0.7,1.6,1.6,1.6h21.6c0.9,0,1.6-0.7,1.6-1.6V13.4z"/>
</svg>
